<?xml version="1.0" encoding="UTF-8"?>
<svg version="1.1" xmlns="http://www.w3.org/2000/svg" width="750" height="750">
<path d="M0 0 C247.5 0 495 0 750 0 C750 247.5 750 495 750 750 C502.5 750 255 750 0 750 C0 502.5 0 255 0 0 Z " fill="#000000" transform="translate(0,0)"/>
<path d="M0 0 C4.03195612 1.52053472 6.77554621 3.25148522 10.0625 6.0625 C13.98378814 9.35132231 17.95279929 12.51200051 22.0625 15.5625 C26.56351437 18.90495211 30.99997213 22.29037838 35.26263428 25.93409729 C37.92785147 28.10289637 37.92785147 28.10289637 41.07208252 29.39024353 C44.896448 31.36674793 47.81916204 33.26916684 50 37 C52.14368005 45.23338646 51.4357553 54.11895719 51.21672726 62.54789472 C51.14128972 65.94285304 51.1346305 69.33796021 51.12042236 72.73362732 C51.08324383 79.15188873 50.98494726 85.56767339 50.86422849 91.98484796 C50.7297149 99.29532788 50.66402687 106.60593134 50.60388327 113.91734231 C50.47872538 128.9462708 50.26790263 143.97288679 50 159 C50.66 159 51.32 159 52 159 C52.26650266 158.40831905 52.53300531 157.81663811 52.80758381 157.20702744 C54.02597209 154.9519286 55.26747913 153.48838372 57.07865906 151.68756104 C57.71076797 151.05414795 58.34287689 150.42073486 58.99414062 149.76812744 C59.68660889 149.08442078 60.37907715 148.40071411 61.0925293 147.69628906 C61.82284866 146.96728394 62.55316803 146.23827881 63.30561829 145.48718262 C65.7239257 143.07537168 68.14912788 140.67061335 70.57421875 138.265625 C72.25903804 136.58707832 73.94334174 134.90801397 75.62715149 133.22845459 C80.06722385 128.80169681 84.51281778 124.38052922 88.96002197 119.9609375 C96.06149853 112.90252716 103.15638804 105.83751279 110.24790382 98.76909637 C112.71980953 96.30736178 115.19513171 93.84910191 117.67082214 91.39117432 C119.20083283 89.86799847 120.73073064 88.34470923 122.26049805 86.82128906 C123.28401871 85.80787445 123.28401871 85.80787445 124.32821655 84.77398682 C128.76021039 80.35238805 132.93552216 75.76130677 137 71 C140.13349687 72.39038759 142.25516164 74.0074226 144.66998291 76.42947388 C145.38227051 77.13901215 146.09455811 77.84855042 146.82843018 78.57958984 C147.59951111 79.35786133 148.37059204 80.13613281 149.16503906 80.93798828 C149.9849231 81.75758026 150.80480713 82.57717224 151.64953613 83.42160034 C154.35966624 86.13312432 157.06264248 88.85166492 159.765625 91.5703125 C161.64277429 93.4511917 163.520312 95.33167487 165.39837646 97.2116394 C169.83634406 101.65582026 174.26918925 106.10507422 178.70021415 110.55617607 C183.74583409 115.62415976 188.79714216 120.68645771 193.84893465 125.74828744 C204.23896097 136.15921229 214.62183072 146.57725506 225 157 C224.99777939 156.39315841 224.99555878 155.78631681 224.99327087 155.16108608 C224.94193209 140.37912251 224.93482962 125.59763159 224.97665405 110.81566525 C224.99581948 103.66703101 225.00014244 96.51896893 224.96923828 89.37036133 C224.94233239 83.13783173 224.94356645 76.90604335 224.97825909 70.67354113 C224.99564822 67.3746225 224.99497356 64.07732827 224.96896362 60.77842522 C224.94227721 57.09060455 224.96532996 53.40618959 225 49.71850586 C224.98058853 48.63093491 224.96117706 47.54336395 224.94117737 46.4228363 C225.08064829 39.15949456 225.08064829 39.15949456 227.74026489 35.80516243 C229.74854383 34.02485798 231.77347077 32.49399856 234 31 C235.00804687 30.21753906 236.01609375 29.43507812 237.0546875 28.62890625 C237.98539063 27.94699219 238.91609375 27.26507813 239.875 26.5625 C243.55802286 23.83467509 247.19115034 21.07532077 250.75 18.1875 C255.22645441 14.57863203 259.78534065 11.08789075 264.375 7.625 C265.41092285 6.83838989 265.41092285 6.83838989 266.46777344 6.03588867 C267.12551758 5.54193604 267.78326172 5.0479834 268.4609375 4.5390625 C269.04665527 4.09771973 269.63237305 3.65637695 270.23583984 3.20166016 C272.08834478 1.93982383 273.98909492 0.98419812 276 0 C276.18687939 24.91264477 276.32795435 49.8251845 276.41449738 74.73838902 C276.45574894 86.30605563 276.51198943 97.87328674 276.60351562 109.44067383 C276.68325179 119.52280321 276.73486544 129.60461721 276.75270796 139.68705314 C276.76313806 145.02585672 276.78764961 150.36375803 276.84584045 155.70227242 C276.90018015 160.72824035 276.91688513 165.75293529 276.90486145 170.77916908 C276.90706069 172.62267732 276.92295351 174.46622851 276.9536438 176.30948257 C277.17425133 190.24372456 277.17425133 190.24372456 274.2908783 194.55625725 C272.2785099 196.33152149 270.29703192 197.62789702 268 199 C266.70857323 200.20724228 265.44389501 201.44429454 264.21875 202.71875 C263.60821777 203.33766113 262.99768555 203.95657227 262.36865234 204.59423828 C261.75199707 205.22313965 261.1353418 205.85204102 260.5 206.5 C255.99073869 211.05833563 251.46811207 215.50723632 246.5703125 219.65234375 C243.45887892 222.32260391 240.63836723 225.24193892 238 228.375 C236 230 236 230 233.5625 230.0625 C229.06471536 228.19756491 226.5239238 224.64180665 223.5 220.9375 C221.15617795 217.99525535 221.15617795 217.99525535 218.5 216 C215.54131064 213.63304851 213.39318368 210.93165 211 208 C209.34723563 206.3173664 207.67908358 204.65609161 206 203 C204.562082 201.56853562 203.12481413 200.13641805 201.68798828 198.70385742 C200.8700882 197.88918503 200.05218811 197.07451263 199.20950317 196.2351532 C195.979436 193.01672055 192.75124498 189.79641027 189.52366829 186.57548046 C187.08302395 184.14004843 184.64145274 181.70556082 182.19775391 179.27319336 C179.3607782 176.44927881 176.52796542 173.62121949 173.6953125 170.79296875 C172.82842804 169.93124557 171.96154358 169.0695224 171.06838989 168.1816864 C166.70794842 163.82164453 162.50519789 159.39464872 158.48568726 154.71821594 C155.25109741 150.97737223 151.73296926 147.50728318 148.25 144 C147.49589844 143.22527344 146.74179687 142.45054687 145.96484375 141.65234375 C145.23910156 140.92144531 144.51335937 140.19054687 143.765625 139.4375 C142.78770996 138.44556641 142.78770996 138.44556641 141.79003906 137.43359375 C139.99195598 135.6874448 139.99195598 135.6874448 137 136 C133.64624998 138.9591912 130.78913345 142.35388053 127.8125 145.6875 C121.92542298 152.25912085 115.83632273 158.63633274 109.125 164.375 C103.92618635 168.82205037 99.18150287 173.73483051 94.38232422 178.60351562 C93.11644296 179.88236423 91.83812038 181.14886657 90.55859375 182.4140625 C87.38105295 185.62556175 84.31813633 188.93438604 81.25 192.25 C75.94867138 197.95592014 70.55582484 203.54037992 65 209 C64.195625 209.825 63.39125 210.65 62.5625 211.5 C59.25780835 214.72408941 55.81018647 217.77636164 52.3671875 220.8515625 C50.56499192 222.48721855 48.8233525 224.13445241 47.125 225.875 C45.18944292 227.81055708 43.23501902 229.42720883 41 231 C37.97629898 228.80094471 35.50034013 226.48522869 33.125 223.625 C29.15852367 218.97880213 24.72186519 214.90760004 20.20947266 210.80322266 C18.97012307 209.66835215 17.74649621 208.51614108 16.53671455 207.34980202 C14.5860931 205.54290805 12.6240426 203.87651991 10.5634594 202.2046566 C4.57915776 197.11780697 -0.55218906 192.50330665 -1.55486369 184.40698838 C-1.7850854 180.21817221 -1.7139487 176.06857874 -1.58935547 171.87744141 C-1.5853979 169.99362994 -1.58763979 168.10979694 -1.59555054 166.22599792 C-1.5995393 161.15274188 -1.5177215 156.08419663 -1.41951513 151.01202822 C-1.33150677 145.69653023 -1.32373509 140.38090298 -1.30715942 135.06478882 C-1.26378647 125.01671241 -1.14910044 114.97078937 -1.00826657 104.92365777 C-0.85133561 93.47766535 -0.77469676 82.03156559 -0.70453048 70.58476377 C-0.55851538 47.05531908 -0.31254926 23.52778062 0 0 Z " fill="#9725E0" transform="translate(237,151)"/>
<path d="M0 0 C4.00990839 0.52179637 5.50032138 2.33876518 8.05249023 5.36328125 C12.70127778 10.70917058 17.61976625 15.72395641 22.65577888 20.70037842 C24.20100484 22.22788004 25.74237386 23.7591845 27.28282166 25.29150391 C31.65450541 29.63899305 36.03217992 33.98041591 40.41381836 38.31787109 C43.11271109 40.99006674 45.8067796 43.66704703 48.49789238 46.34707642 C49.52032179 47.36329363 50.54464529 48.37760883 51.57087898 49.38998413 C52.99452284 50.79452495 54.4116224 52.20568991 55.82836914 53.6171875 C56.63617325 54.41753418 57.44397736 55.21788086 58.27626038 56.04248047 C60 58 60 58 60 60 C58.93652344 60.20302734 58.93652344 60.20302734 57.8515625 60.41015625 C50.71066688 61.85389665 43.70366445 63.58733581 36.67919922 65.51416016 C32.17430989 66.74965627 27.66125972 67.95365352 23.14697266 69.15429688 C21.17991138 69.68291598 19.21550302 70.22162982 17.25537109 70.77539062 C4.69092139 74.30344728 -4.55676298 73.89358134 -17 70 C-17.94230469 69.7215625 -18.88460937 69.443125 -19.85546875 69.15625 C-21.42033599 68.68653455 -22.98178302 68.20522758 -24.5390625 67.7109375 C-28.69594877 66.51005924 -32.93692603 65.70496465 -37.171875 64.828125 C-43.82286722 63.38933893 -50.40820828 61.68647139 -57 60 C-55.63421085 56.93443143 -54.08841974 54.85041362 -51.69921875 52.50390625 C-51.05146484 51.86259766 -50.40371094 51.22128906 -49.73632812 50.56054688 C-49.06021484 49.90119141 -48.38410156 49.24183594 -47.6875 48.5625 C-47.02298828 47.90701172 -46.35847656 47.25152344 -45.67382812 46.57617188 C-43.78571176 44.71420153 -41.89339143 42.85660375 -40 41 C-36.92245282 37.9706765 -33.99767819 34.9025552 -31.1875 31.625 C-27.95161149 27.94951908 -24.54409001 24.71779309 -20.8125 21.5546875 C-18.40979066 19.49374285 -16.2074622 17.26712334 -14 15 C-13.2575 14.278125 -12.515 13.55625 -11.75 12.8125 C-7.69569961 8.66605642 -3.85796233 4.32865054 0 0 Z " fill="#9625DF" transform="translate(374,335)"/>
<path d="M0 0 C4.95 0 9.9 0 15 0 C15.61875 1.8871875 15.61875 1.8871875 16.25 3.8125 C17.42058916 7.34635406 18.68410075 10.83042815 20 14.3125 C21.43124223 18.19420241 22.55025579 22.03641042 23.5 26.0625 C24.81562007 31.62299367 26.71978565 36.76823915 29 42 C29.31453125 40.82824219 29.6290625 39.65648437 29.953125 38.44921875 C32.04326995 30.7448377 34.17072459 23.14472373 37.01953125 15.6796875 C38.90520517 10.52601296 40.41836168 5.2532987 42 0 C46.62 0 51.24 0 56 0 C59.11736525 7.40889229 61.51087631 14.81227223 63.625 22.5625 C63.9240625 23.63435547 64.223125 24.70621094 64.53125 25.81054688 C66.19899798 31.84321931 67.70217963 37.87711477 69 44 C69.66 44 70.32 44 71 44 C71.0825 42.7625 71.165 41.525 71.25 40.25 C71.79869832 35.1924329 73.33713967 30.7017408 75.0234375 25.921875 C76.10983279 22.67138028 76.82091247 19.44283844 77.5 16.08984375 C78.1716638 13.28249896 79.19909709 10.67675873 80.31640625 8.01953125 C81.26662514 5.39024045 81.26662514 5.39024045 82 0 C86.95 0 91.9 0 97 0 C95.38222703 6.1305081 93.65124006 12.20117025 91.75 18.25 C91.53455032 18.93646606 91.31910065 19.62293213 91.09712219 20.3302002 C90.39901739 22.55376201 89.69949504 24.77687519 89 27 C88.52096714 28.52535598 88.04204548 30.05074688 87.56323242 31.57617188 C86.10596723 36.21786079 84.6468446 40.85896452 83.1875 45.5 C82.68032614 47.11327735 82.17316462 48.72655858 81.66601562 50.33984375 C80.44417448 54.22661412 79.22208288 58.1133056 78 62 C72.39 62 66.78 62 61 62 C60.62875 60.618125 60.2575 59.23625 59.875 57.8125 C58.26171973 51.90743107 56.60632106 46.0145688 54.9375 40.125 C54.6801709 39.20952393 54.4228418 38.29404785 54.15771484 37.35083008 C52.95590266 33.12584264 51.64440148 29.07593353 50 25 C49.875 22.1875 49.875 22.1875 50 20 C49.34 20 48.68 20 48 20 C47.896875 20.78375 47.79375 21.5675 47.6875 22.375 C47.16029495 25.15480844 46.53965387 27.68261724 45.71875 30.375 C45.4508667 31.25591309 45.1829834 32.13682617 44.90698242 33.04443359 C44.60767822 34.01977051 44.30837402 34.99510742 44 36 C43.67169189 37.0720166 43.34338379 38.1440332 43.00512695 39.24853516 C41.94350032 42.708157 40.8785117 46.16672698 39.8125 49.625 C39.26045898 51.41744141 39.26045898 51.41744141 38.69726562 53.24609375 C37.79850056 56.16416215 36.89929573 59.0820951 36 62 C30.72 62 25.44 62 20 62 C18.09647372 57.55843868 16.47765991 53.61725305 15.125 49.0625 C14.62033203 47.38994141 14.62033203 47.38994141 14.10546875 45.68359375 C13.74066406 44.46800781 13.37585938 43.25242187 13 42 C12.15368184 39.20588092 11.29758376 36.41490888 10.4375 33.625 C10.14093506 32.64478882 10.14093506 32.64478882 9.83837891 31.64477539 C8.85954587 28.47466363 7.76477109 25.45684581 6.4453125 22.41015625 C5.08629392 19.20360699 4.20473148 16.20147106 3.4375 12.8125 C2.50515514 8.70068984 2.50515514 8.70068984 0.91015625 4.82421875 C0 3 0 3 0 0 Z " fill="#E9E8E9" transform="translate(248,455)"/>
<path d="M0 0 C5.64842602 4.66078375 8.59101534 9.84500835 9.34765625 17.07421875 C9.6459965 25.30343734 9.13580546 31.98498837 3.98828125 38.640625 C-1.58682719 44.22762067 -8.46749255 47.68159788 -16.38671875 48.015625 C-23.79983958 47.68388465 -29.9017975 46.13276307 -35.38671875 40.953125 C-41.89616875 33.66623057 -43.77497959 28.0159793 -43.45703125 18.1171875 C-42.4453855 10.21925137 -38.88415896 4.64089521 -32.66015625 -0.203125 C-23.200676 -6.83821067 -9.42238353 -6.60029484 0 0 Z " fill="#E5E5E6" transform="translate(444.01171875,550.359375)"/>
<path d="M0 0 C6.7134375 -0.0928125 6.7134375 -0.0928125 13.5625 -0.1875 C14.96056885 -0.21481201 16.3586377 -0.24212402 17.79907227 -0.27026367 C27.11183514 -0.33259451 33.40250904 0.72982809 40.421875 7.1484375 C45.32041053 12.89572918 46.68925808 19.94199248 46.38671875 27.328125 C45.21857486 35.39893732 40.87779084 41.12220916 35.25 46.75 C25.16163964 52.35464464 10.03738496 50 0 50 C0 33.5 0 17 0 0 Z " fill="#E2E3E3" transform="translate(132,547)"/>
<path d="M0 0 C6.6825 -0.12375 6.6825 -0.12375 13.5 -0.25 C15.58344727 -0.30462402 15.58344727 -0.30462402 17.70898438 -0.36035156 C24.94727375 -0.42509102 29.93339994 -0.09348256 36 4 C39.53353342 9.30030014 39.90088582 15.75385834 39 22 C36.94107111 25.95314348 33.53533991 28.40892823 30 31 C30.62648438 31.95261719 31.25296875 32.90523437 31.8984375 33.88671875 C32.72418849 35.15349584 33.54969652 36.42043132 34.375 37.6875 C34.7875 38.31333984 35.2 38.93917969 35.625 39.58398438 C37.8194615 42.96416298 39.66630311 46.16745344 41 50 C36.96484577 51.17372357 33.98367813 51.45966832 30 50 C27.3712382 46.72228079 25.66740389 42.89487594 23.79394531 39.15478516 C21.35577196 34.40521014 21.35577196 34.40521014 16.9296875 31.6484375 C13.56601568 31.32266001 13.56601568 31.32266001 9 32 C9 37.61 9 43.22 9 49 C6.03 49 3.06 49 0 49 C0 32.83 0 16.66 0 0 Z " fill="#E6E7E7" transform="translate(578,547)"/>
<path d="M0 0 C4.33125 -0.061875 8.6625 -0.12375 13.125 -0.1875 C14.47996582 -0.21481201 15.83493164 -0.24212402 17.23095703 -0.27026367 C18.85300049 -0.28150269 18.85300049 -0.28150269 20.5078125 -0.29296875 C21.60754395 -0.3086792 22.70727539 -0.32438965 23.84033203 -0.34057617 C28.77594457 0.19142657 32.05634787 2.24097546 35.875 5.3125 C39.09075587 9.50559344 38.7938821 14.49271384 38.6328125 19.56640625 C37.67080743 24.78617452 35.10753254 27.77530816 31 31 C28.59940183 32.20029908 27.10639351 32.11459743 24.4296875 32.09765625 C23.53378906 32.09443359 22.63789063 32.09121094 21.71484375 32.08789062 C20.30912109 32.07532227 20.30912109 32.07532227 18.875 32.0625 C17.45767578 32.05573242 17.45767578 32.05573242 16.01171875 32.04882812 C13.6744523 32.03702375 11.33721831 32.01908799 9 32 C9 37.94 9 43.88 9 50 C6.03 50 3.06 50 0 50 C0 33.5 0 17 0 0 Z " fill="#E8E8E9" transform="translate(470,547)"/>
<path d="M0 0 C4.62 0 9.24 0 14 0 C14 16.5 14 33 14 50 C23.9 50 33.8 50 44 50 C44 53.96 44 57.92 44 62 C29.48 62 14.96 62 0 62 C0 41.54 0 21.08 0 0 Z " fill="#E7E8E8" transform="translate(460,455)"/>
<path d="M0 0 C4.29 0 8.58 0 13 0 C13 16.5 13 33 13 50 C23.56 50 34.12 50 45 50 C45 53.96 45 57.92 45 62 C30.15 62 15.3 62 0 62 C0 41.54 0 21.08 0 0 Z " fill="#EBEBEB" transform="translate(399,455)"/>
<path d="M0 0 C11.55 0 23.1 0 35 0 C35 2.64 35 5.28 35 8 C26.75 8 18.5 8 10 8 C10 11.96 10 15.92 10 20 C16.93 20 23.86 20 31 20 C31 22.64 31 25.28 31 28 C24.07 28 17.14 28 10 28 C10 32.62 10 37.24 10 42 C18.25 42 26.5 42 35 42 C35 44.64 35 47.28 35 50 C23.45 50 11.9 50 0 50 C0 33.5 0 17 0 0 Z " fill="#E4E4E5" transform="translate(304,547)"/>
<path d="M0 0 C11.22 0 22.44 0 34 0 C34 2.64 34 5.28 34 8 C26.08 8 18.16 8 10 8 C10 11.96 10 15.92 10 20 C16.93 20 23.86 20 31 20 C31 22.64 31 25.28 31 28 C24.07 28 17.14 28 10 28 C10 32.62 10 37.24 10 42 C17.92 42 25.84 42 34 42 C34 44.64 34 47.28 34 50 C22.78 50 11.56 50 0 50 C0 33.5 0 17 0 0 Z " fill="#E3E4E4" transform="translate(525,547)"/>
<path d="M0 0 C11.22 0 22.44 0 34 0 C34 2.64 34 5.28 34 8 C26.08 8 18.16 8 10 8 C10 11.96 10 15.92 10 20 C16.93 20 23.86 20 31 20 C31 22.64 31 25.28 31 28 C23.74 28 16.48 28 9 28 C9 32.62 9 37.24 9 42 C17.25 42 25.5 42 34 42 C34 44.64 34 47.28 34 50 C22.78 50 11.56 50 0 50 C0 33.5 0 17 0 0 Z " fill="#E1E2E2" transform="translate(193,547)"/>
<path d="M0 0 C3.96 0 7.92 0 12 0 C12.5775 1.876875 13.155 3.75375 13.75 5.6875 C14.11609375 6.87214844 14.4821875 8.05679688 14.859375 9.27734375 C15.58996488 11.66176894 16.30974243 14.04955031 17.015625 16.44140625 C17.50289063 18.07916016 17.50289063 18.07916016 18 19.75 C18.28875 20.73484375 18.5775 21.7196875 18.875 22.734375 C20.32578689 26.94568694 22.13950413 30.95613094 24 35 C25.24709709 31.28362001 26.49213418 27.56655665 27.73535156 23.84887695 C28.36417107 21.96985867 28.99457176 20.09136977 29.625 18.21289062 C30.02460938 17.01728516 30.42421875 15.82167969 30.8359375 14.58984375 C31.20251465 13.49534912 31.5690918 12.40085449 31.94677734 11.27319336 C32.7057084 8.91459608 33.4076086 6.53737715 34.07275391 4.15063477 C35 1 35 1 36 0 C37.68608966 -0.07205511 39.37500659 -0.08386068 41.0625 -0.0625 C41.98160156 -0.05347656 42.90070313 -0.04445313 43.84765625 -0.03515625 C44.55792969 -0.02355469 45.26820313 -0.01195312 46 0 C45.19094499 5.45810243 43.96056354 10.38361828 41.71875 15.4375 C38.75039109 22.40505475 36.45268255 29.52855279 34.1875 36.75 C33.77718662 38.0444275 33.36638164 39.33869927 32.95507812 40.6328125 C31.96524798 43.75368871 30.98193587 46.87663099 30 50 C25.71 50 21.42 50 17 50 C12.04464286 37.41071429 12.04464286 37.41071429 10.625 32.375 C8.93720273 26.44331941 6.70980764 20.70851315 4.51220703 14.95068359 C2.65153317 10.01301592 1.18294086 5.14373289 0 0 Z " fill="#E6E6E6" transform="translate(242,547)"/>
<path d="M0 0 C4.95 0 9.9 0 15 0 C15 20.46 15 40.92 15 62 C10.05 62 5.1 62 0 62 C0 41.54 0 21.08 0 0 Z " fill="#E2E1E2" transform="translate(362,455)"/>
<path d="M0 0 C3.86510919 2.6047475 6.85183938 4.63481936 8.875 8.9375 C9.79236056 15.310376 10.25372008 21.37033568 7.1484375 27.15234375 C4.03284031 30.96921797 1.75218856 33.54571801 -3.17578125 34.57421875 C-9.07547333 34.66607024 -13.18888148 34.62519709 -17.8125 30.6875 C-22.2261318 26.26441717 -23.42716801 22.81148475 -23.5 16.5625 C-23.39116522 11.15703938 -23.08800622 7.90050622 -19.125 3.9375 C-12.92484112 -1.19271995 -7.8269096 -2.66114926 0 0 Z " fill="#050505" transform="translate(434.125,555.0625)"/>
<path d="M0 0 C15 0 15 0 21 3 C26.07956933 8.62871196 26.34699457 12.33917829 26.28125 19.79296875 C25.79873953 25.29492837 23.3721814 27.79117353 19.375 31.3125 C12.44264371 36.23812157 12.43781957 34 0 34 C0 22.78 0 11.56 0 0 Z " fill="#060606" transform="translate(142,555)"/>
<path d="M0 0 C3.3 0 6.6 0 10 0 C10 13.86 10 27.72 10 42 C17.92 42 25.84 42 34 42 C34 44.64 34 47.28 34 50 C22.78 50 11.56 50 0 50 C0 33.5 0 17 0 0 Z " fill="#E0E1E1" transform="translate(357,547)"/>
<path d="M0 0 C2.206875 -0.061875 4.41375 -0.12375 6.6875 -0.1875 C8.54955078 -0.23970703 8.54955078 -0.23970703 10.44921875 -0.29296875 C14.49607131 0.04092998 17.11242948 1.11242948 20 4 C20.39654771 8.12409614 20.42561229 10.32489085 18.1875 13.875 C13.3052557 18.61775161 6.36899609 17.06305937 0 17 C0 11.39 0 5.78 0 0 Z " fill="#0B0B0B" transform="translate(479,555)"/>
<path d="M0 0 C3.5578125 -0.12375 3.5578125 -0.12375 7.1875 -0.25 C7.92508545 -0.28641602 8.6626709 -0.32283203 9.42260742 -0.36035156 C12.96873531 -0.41973304 14.90906325 -0.05533188 17.953125 1.796875 C20 4 20 4 20.5625 7.5 C19.92519445 11.46545673 19.1376325 12.60063397 16 15 C11.53794887 17.23102556 4.78092876 16.04346299 0 16 C0 10.72 0 5.44 0 0 Z " fill="#070707" transform="translate(588,555)"/>
<path d="M0 0 C1.9375 0.375 1.9375 0.375 4 1 C4.495 1.99 4.495 1.99 5 3 C3.92489922 3.09914955 3.92489922 3.09914955 2.82807922 3.20030212 C-0.90319123 4.25539599 -2.52634907 6.04522102 -5.24926758 8.79516602 C-5.99651093 9.5415332 -5.99651093 9.5415332 -6.7588501 10.30297852 C-8.3970752 11.94398217 -10.02068957 13.59867868 -11.64453125 15.25390625 C-12.77994203 16.39678021 -13.91624134 17.53877208 -15.0533905 18.67991638 C-18.03952367 21.68129968 -21.01344839 24.69450142 -23.98498535 27.71032715 C-27.02111626 30.78742382 -30.06864558 33.8531853 -33.11523438 36.91992188 C-39.08803437 42.93558182 -45.04798397 48.96377557 -51 55 C-51.99 54.67 -52.98 54.34 -54 54 C-52.88121617 52.82737096 -51.75476949 51.66204862 -50.625 50.5 C-49.99851562 49.8503125 -49.37203125 49.200625 -48.7265625 48.53125 C-47 47 -47 47 -45 47 C-44.74492676 46.41968018 -44.48985352 45.83936035 -44.22705078 45.24145508 C-42.87263534 42.76734282 -41.36587734 41.12278998 -39.3671875 39.13671875 C-38.64273437 38.41419922 -37.91828125 37.69167969 -37.171875 36.94726562 C-36.41390625 36.20154297 -35.6559375 35.45582031 -34.875 34.6875 C-34.14023437 33.95337891 -33.40546875 33.21925781 -32.6484375 32.46289062 C-28.49097001 28.33836082 -24.22923859 24.39856762 -19.79492188 20.57446289 C-17.36294362 18.44118926 -15.08273726 16.17856864 -12.8125 13.875 C-11.61560547 12.66457031 -11.61560547 12.66457031 -10.39453125 11.4296875 C-9.60433594 10.62789063 -8.81414062 9.82609375 -8 9 C-7.113125 8.12214844 -6.22625 7.24429687 -5.3125 6.33984375 C-3.31684841 4.32059492 -1.63024329 2.31666152 0 0 Z " fill="#1B0729" transform="translate(374,286)"/>
<path d="M0 0 C7.59 0 15.18 0 23 0 C23 3.3 23 6.6 23 10 C21.15123267 11.84876733 18.56990811 11.13244636 16.11328125 11.13671875 C15.33339844 11.13285156 14.55351562 11.12898437 13.75 11.125 C12.60337891 11.13080078 12.60337891 11.13080078 11.43359375 11.13671875 C10.68722656 11.13542969 9.94085938 11.13414062 9.171875 11.1328125 C8.1523877 11.13112061 8.1523877 11.13112061 7.11230469 11.12939453 C5 11 5 11 0 10 C0 13.96 0 17.92 0 22 C8.25 22 16.5 22 25 22 C25 24.97 25 27.94 25 31 C24.67 31 24.34 31 24 31 C24 28.36 24 25.72 24 23 C15.75 23 7.5 23 -1 23 C-1 18.38 -1 13.76 -1 9 C6.26 9 13.52 9 21 9 C21 6.36 21 3.72 21 1 C14.07 1 7.14 1 0 1 C0 0.67 0 0.34 0 0 Z " fill="#383838" transform="translate(203,566)"/>
<path d="M0 0 C11.22 0 22.44 0 34 0 C34 2.64 34 5.28 34 8 C25.75 8 17.5 8 9 8 C9 7.67 9 7.34 9 7 C16.92 7 24.84 7 33 7 C32.01 6.67 31.02 6.34 30 6 C30 4.68 30 3.36 30 2 C20.43 2 10.86 2 1 2 C0.67 1.34 0.34 0.68 0 0 Z " fill="#DBDCDC" transform="translate(305,547)"/>
<path d="M0 0 C1.9375 0.375 1.9375 0.375 4 1 C4.33 1.66 4.66 2.32 5 3 C4.26628174 3.0817749 3.53256348 3.1635498 2.77661133 3.24780273 C-0.63195165 4.17119872 -1.97653529 5.51542839 -4.42578125 8.03515625 C-5.22177734 8.84404297 -6.01777344 9.65292969 -6.83789062 10.48632812 C-7.65451172 11.33646484 -8.47113281 12.18660156 -9.3125 13.0625 C-10.14845703 13.91650391 -10.98441406 14.77050781 -11.84570312 15.65039062 C-13.90642344 17.75821312 -15.95723209 19.87479849 -18 22 C-18.66 21.67 -19.32 21.34 -20 21 C-17.03776042 18.03776042 -14.07552083 15.07552083 -11.11328125 12.11328125 C-10.32981323 11.32884644 -10.32981323 11.32884644 -9.53051758 10.52856445 C-8.09787106 9.09774616 -6.65854861 7.67362109 -5.21875 6.25 C-3.26042906 4.26409707 -1.6022535 2.27688656 0 0 Z " fill="#11041A" transform="translate(374,286)"/>
<path d="M0 0 C0 4.06772485 -1.54175504 5.09653495 -4.25 8.0625 C-5.03890625 8.94035156 -5.8278125 9.81820313 -6.640625 10.72265625 C-8.76614607 12.77427675 -10.37051684 13.78371924 -13 15 C-14.13350534 17.01669827 -14.13350534 17.01669827 -15 19 C-15.66 19.33 -16.32 19.66 -17 20 C-16.42619828 16.33622257 -15.02730342 14.67232775 -12.40234375 12.109375 C-11.68369141 11.40039062 -10.96503906 10.69140625 -10.22460938 9.9609375 C-9.46986328 9.23132813 -8.71511719 8.50171875 -7.9375 7.75 C-7.17888672 7.00492187 -6.42027344 6.25984375 -5.63867188 5.4921875 C-3.76567793 3.65453306 -1.88604389 1.82424276 0 0 Z " fill="#9222D2" transform="translate(306,291)"/>
<path d="M0 0 C4.95 0 9.9 0 15 0 C14.67 1.65 14.34 3.3 14 5 C13.01 4.67 12.02 4.34 11 4 C9.10787263 3.77820215 7.21115528 3.59385985 5.3125 3.4375 C4.31863281 3.35371094 3.32476562 3.26992188 2.30078125 3.18359375 C1.16189453 3.09271484 1.16189453 3.09271484 0 3 C0 2.01 0 1.02 0 0 Z " fill="#D3D2D4" transform="translate(330,455)"/>
<path d="M0 0 C0.33 0.99 0.66 1.98 1 3 C-2.3 6.3 -5.6 9.6 -9 13 C-9.99 12.67 -10.98 12.34 -12 12 C-8.04 8.04 -4.08 4.08 0 0 Z " fill="#9221D3" transform="translate(319,278)"/>
<path d="M0 0 C-1.4980087 3.81311305 -3.62648024 5.72483551 -7 8 C-9.8125 8.75 -9.8125 8.75 -12 9 C-3.25 0 -3.25 0 0 0 Z " fill="#9221D0" transform="translate(499,162)"/>
<path d="M0 0 C0.433125 0.61875 0.86625 1.2375 1.3125 1.875 C2.99740483 4.2197245 2.99740483 4.2197245 6 6 C5.67 7.98 5.34 9.96 5 12 C4.34 12 3.68 12 3 12 C2.49440092 10.56445975 1.9957251 9.1264798 1.5 7.6875 C1.2215625 6.88699219 0.943125 6.08648437 0.65625 5.26171875 C0 3 0 3 0 0 Z " fill="#2A292A" transform="translate(314,487)"/>
<path d="M0 0 C1 2 1 2 0.22265625 4.8203125 C-0.16019531 5.91085937 -0.54304688 7.00140625 -0.9375 8.125 C-1.31777344 9.22070312 -1.69804687 10.31640625 -2.08984375 11.4453125 C-2.39019531 12.28835938 -2.69054687 13.13140625 -3 14 C-5 11 -5 11 -4.625 8.8125 C-4.41875 8.214375 -4.2125 7.61625 -4 7 C-3.34 7 -2.68 7 -2 7 C-1.855625 6.030625 -1.71125 5.06125 -1.5625 4.0625 C-1 1 -1 1 0 0 Z " fill="#252525" transform="translate(280,485)"/>
<path d="M0 0 C3.96 0 7.92 0 12 0 C11.67 0.66 11.34 1.32 11 2 C9.02 2 7.04 2 5 2 C4.67 2.99 4.34 3.98 4 5 C2.68 3.35 1.36 1.7 0 0 Z " fill="#DEDEDE" transform="translate(242,547)"/>
<path d="M0 0 C1 2 1 2 0.22265625 4.3828125 C-0.16019531 5.28773438 -0.54304688 6.19265625 -0.9375 7.125 C-1.31777344 8.03507813 -1.69804687 8.94515625 -2.08984375 9.8828125 C-2.39019531 10.58148437 -2.69054687 11.28015625 -3 12 C-4.74627478 9.38058783 -5.38722388 7.96175123 -6 5 C-5.01 5.33 -4.02 5.66 -3 6 C-2.01 4.02 -1.02 2.04 0 0 Z " fill="#1F1F20" transform="translate(269,572)"/>
<path d="M0 0 C-1.44253657 3.36591866 -3.33264727 5.51047079 -6 8 C-6.99 7.67 -7.98 7.34 -9 7 C-7.88121617 5.82737096 -6.75476949 4.66204862 -5.625 3.5 C-4.68527344 2.52546875 -4.68527344 2.52546875 -3.7265625 1.53125 C-2 0 -2 0 0 0 Z " fill="#210932" transform="translate(329,333)"/>
<path d="M0 0 C0.99 0.33 1.98 0.66 3 1 C0.36 3.64 -2.28 6.28 -5 9 C-5.33 8.01 -5.66 7.02 -6 6 C-5.34 6 -4.68 6 -4 6 C-4 5.34 -4 4.68 -4 4 C-3.34 4 -2.68 4 -2 4 C-1.34 2.68 -0.68 1.36 0 0 Z " fill="#8420BB" transform="translate(313,345)"/>
<path d="M0 0 C0.66 0.66 1.32 1.32 2 2 C-0.64 3.98 -3.28 5.96 -6 8 C-6 5 -6 5 -4.6875 3.61328125 C-3.125 2.40885417 -1.5625 1.20442708 0 0 Z " fill="#9022D1" transform="translate(471,182)"/>
<path d="M0 0 C2.64 0 5.28 0 8 0 C5.31158141 2.25245881 3.35358125 3.88213958 0 5 C0 3.35 0 1.7 0 0 Z " fill="#E2E3E3" transform="translate(358,547)"/>
<path d="M0 0 C0.66 0 1.32 0 2 0 C2.33 1.98 2.66 3.96 3 6 C2.01 6 1.02 6 0 6 C0 6.66 0 7.32 0 8 C-0.66 8 -1.32 8 -2 8 C-1.34 5.36 -0.68 2.72 0 0 Z " fill="#2C2B2C" transform="translate(296,475)"/>
</svg>
